<svg xmlns="http://www.w3.org/2000/svg" xmlns:xlink="http://www.w3.org/1999/xlink" width="500" zoomAndPan="magnify" viewBox="0 0 375 374.999991" height="500" preserveAspectRatio="xMidYMid meet" version="1.0"><defs><g/><clipPath id="3a85705baa"><path d="M 99 123.695312 L 144 123.695312 L 144 201 L 99 201 Z M 99 123.695312 " clip-rule="nonzero"/></clipPath><clipPath id="baa6ee593c"><path d="M 37.5 123.695312 L 147.75 123.695312 L 147.75 251.195312 L 37.5 251.195312 Z M 37.5 123.695312 " clip-rule="nonzero"/></clipPath></defs><g clip-path="url(#3a85705baa)"><path fill="#5e17eb" d="M 126.125 200.925781 C 130.0625 198.335938 133.476562 195.164062 136.382812 191.417969 C 141.425781 184.914062 143.949219 176.5 143.949219 166.171875 L 143.949219 165.808594 C 143.949219 152.5625 139.722656 142.234375 131.277344 134.820312 C 123.597656 128.078125 113.132812 124.40625 99.882812 123.792969 L 124.949219 168.496094 L 104.203125 168.496094 Z M 126.125 200.925781 " fill-opacity="1" fill-rule="nonzero"/></g><g clip-path="url(#baa6ee593c)"><path fill="#ffffff" d="M 147.773438 251.292969 L 67.167969 155.898438 L 86.984375 155.898438 L 62.382812 123.703125 L 37.5 123.703125 L 37.5 251.292969 L 65.570312 251.292969 L 65.570312 210.464844 L 111.558594 251.292969 Z M 147.773438 251.292969 " fill-opacity="1" fill-rule="nonzero"/></g><g fill="#ffffff" fill-opacity="1"><g transform="translate(156.075499, 215.619259)"><g><path d="M 9.8125 -9.4375 L 9.8125 0 L 2.796875 0 L 2.796875 -25.9375 L 11.296875 -25.9375 C 18.347656 -25.9375 21.875 -23.382812 21.875 -18.28125 C 21.875 -15.269531 20.410156 -12.941406 17.484375 -11.296875 L 25.046875 0 L 17.09375 0 L 11.59375 -9.4375 Z M 9.8125 -14.71875 L 11.125 -14.71875 C 13.570312 -14.71875 14.796875 -15.796875 14.796875 -17.953125 C 14.796875 -19.742188 13.597656 -20.640625 11.203125 -20.640625 L 9.8125 -20.640625 Z M 9.8125 -14.71875 "/></g></g></g><g fill="#ffffff" fill-opacity="1"><g transform="translate(186.702673, 215.619259)"><g><path d="M 18.71875 0 L 17.4375 -4.859375 L 9.015625 -4.859375 L 7.703125 0 L 0 0 L 8.46875 -26.046875 L 17.8125 -26.046875 L 26.390625 0 Z M 15.984375 -10.609375 L 14.875 -14.875 C 14.613281 -15.820312 14.296875 -17.046875 13.921875 -18.546875 C 13.546875 -20.046875 13.300781 -21.125 13.1875 -21.78125 C 13.082031 -21.175781 12.867188 -20.179688 12.546875 -18.796875 C 12.234375 -17.410156 11.539062 -14.679688 10.46875 -10.609375 Z M 15.984375 -10.609375 "/></g></g></g><g fill="#ffffff" fill-opacity="1"><g transform="translate(219.122004, 215.619259)"><g><path d="M 27.5 0 L 18.3125 0 L 8.84375 -18.28125 L 8.671875 -18.28125 C 8.898438 -15.40625 9.015625 -13.207031 9.015625 -11.6875 L 9.015625 0 L 2.796875 0 L 2.796875 -25.9375 L 11.953125 -25.9375 L 21.40625 -7.921875 L 21.515625 -7.921875 C 21.347656 -10.535156 21.265625 -12.632812 21.265625 -14.21875 L 21.265625 -25.9375 L 27.5 -25.9375 Z M 27.5 0 "/></g></g></g><g fill="#ffffff" fill-opacity="1"><g transform="translate(255.462761, 215.619259)"><g><path d="M 27.5 0 L 18.3125 0 L 8.84375 -18.28125 L 8.671875 -18.28125 C 8.898438 -15.40625 9.015625 -13.207031 9.015625 -11.6875 L 9.015625 0 L 2.796875 0 L 2.796875 -25.9375 L 11.953125 -25.9375 L 21.40625 -7.921875 L 21.515625 -7.921875 C 21.347656 -10.535156 21.265625 -12.632812 21.265625 -14.21875 L 21.265625 -25.9375 L 27.5 -25.9375 Z M 27.5 0 "/></g></g></g></svg>